<svg xmlns="http://www.w3.org/2000/svg" viewBox="0 0 376.65 306.57">
  <g>
    <path  d="M98.41,70c-1,2.55-1.88,5.26-2.7,8a233.13,233.13,0,0,0-5.63,25.55c-.75,4.37-1.43,8.77-2.11,13.22s-1.25,8.92-2.26,13.66c-1.83,9.33-4.6,18.81-9.8,27.75a49.79,49.79,0,0,1-10.17,12.22,43.92,43.92,0,0,1-14.23,7.93,57.38,57.38,0,0,1-15.33,2.75,52.33,52.33,0,0,1-7.88-.11A40,40,0,0,1,20,179.41a34.4,34.4,0,0,1-8.14-3.88A28.37,28.37,0,0,1,5,168.88,25.16,25.16,0,0,1,.83,160a28.29,28.29,0,0,1-.69-9.58,26.26,26.26,0,0,1,8.77-17,29.63,29.63,0,0,1,7.84-4.92,34.65,34.65,0,0,1,8.33-2.35,43.66,43.66,0,0,1,8.15-.49,27.51,27.51,0,0,1,9.08,1.73,23.81,23.81,0,0,1,7.83,5.16,41.38,41.38,0,0,1,5,6.06c2.59,3.79,2,7.89-.82,9.25-2.27,1.11-5.24.18-7.44-1.79l-.35-.32a37.39,37.39,0,0,0-4.66-3.62,11.41,11.41,0,0,0-4.14-1.72,17.62,17.62,0,0,0-4.52,0,34.73,34.73,0,0,0-5.37.94,17.59,17.59,0,0,0-8.1,4.24,10.37,10.37,0,0,0-1.14,13.54,12.11,12.11,0,0,0,2.73,2.54,18.78,18.78,0,0,0,3.9,1.82,24.41,24.41,0,0,0,4.8.94,37.83,37.83,0,0,0,5.5.13,42.2,42.2,0,0,0,11-1.69,27,27,0,0,0,9-4.71A33.3,33.3,0,0,0,62.41,150c3.88-6.41,6.44-14.28,8.09-22.49.91-4,1.5-8.49,2.22-12.92s1.41-8.94,2.21-13.44A249,249,0,0,1,81,74s.48-1.71,1.32-4.27A86.32,86.32,0,0,1,86,60.32a40,40,0,0,1,6-9.6c.57-.65,1.17-1.25,1.72-1.76a20.29,20.29,0,0,1,1.69-1.38,13.69,13.69,0,0,1,1.7-1.1,15.08,15.08,0,0,1,8-2.1,17.65,17.65,0,0,1,8,2.33,15.51,15.51,0,0,1,3,2.29c.46.46.88.9,1.2,1.28s.67.81,1,1.19A36,36,0,0,1,121.11,56,79.52,79.52,0,0,1,125,64.69c3.43,8.87,6,17.63,8.58,26.4.82,2.85,1.62,5.71,2.41,8.56,1.23,3.19-3,20.51-4.62,30.71-.33,1.89-1.25,7.36-1.57,5.56l-.51-2-3.34-13c-3-11.43-6.05-22.85-9.42-34-1.69-5.55-3.47-11.05-5.49-16.22a70.65,70.65,0,0,0-3.23-7.22,22.51,22.51,0,0,0-1.68-2.74c-.13-.18-.25-.34-.36-.46s-.21-.22-.21-.24l-.18-.15a1,1,0,0,0-.92-.09.78.78,0,0,0-.26.17l-.12.09-.19.18a4.85,4.85,0,0,0-.41.42,16.51,16.51,0,0,0-1.8,2.47A44.49,44.49,0,0,0,98.41,70Zm209,53s-.37-1.55-.87-4-1.1-5.66-1.68-9l-2.31-13.31s-1.11-6.71-2.54-13.48c-.71-3.39-1.52-6.79-2.21-9.34s-1.22-4.27-1.22-4.27A78,78,0,0,0,293.44,61a39.49,39.49,0,0,0-5.14-8.78,23.05,23.05,0,0,0-4.24-4.14,17.38,17.38,0,0,0-6.1-2.92,17.08,17.08,0,0,0-6.88-.27,12.77,12.77,0,0,0-1.58.32,15.21,15.21,0,0,0-1.5.43c-.47.17-1,.32-1.42.51l-1.44.62a15.88,15.88,0,0,0-3.49,2.34,23.16,23.16,0,0,0-2.46,2.56,38.67,38.67,0,0,0-3.4,5A84.93,84.93,0,0,0,251,66.3c-3.67,8.76-6.54,17.48-9.26,26.22s-5.16,17.49-7.46,26.26-4.3,17.59-6.37,26.37l-5.58,26.45c-3.59,17.63-6.92,35.28-10.76,52.75-1.93,8.73-4,17.42-6.32,26A212.37,212.37,0,0,1,197,275.26s-.6,1.49-1.58,3.65a63.25,63.25,0,0,1-3.86,7.36c-.38.59-.76,1.16-1.14,1.68l-.49.64-.19.21a2.89,2.89,0,0,1-.75.6,1.23,1.23,0,0,1-.9.14,2.1,2.1,0,0,1-1.13-.88l-.29-.42c-.24-.34-.48-.69-.72-1.07-.48-.75-1-1.56-1.41-2.42a91.21,91.21,0,0,1-4.91-11.36s-1.12-3-2.61-7.67-3.32-11-5-17.43c-3.36-12.85-6.21-26-6.21-26L160,196.15,157.06,183,156,178.32c-.32,1-.64,2.06-.93,3.1l-2.1,7.77c-2.42,8.3-3.55,16.92-5,25.49l2.52,11.43s2.84,13.27,6.28,26.54c1.71,6.64,3.6,13.27,5.19,18.26s2.82,8.32,2.82,8.32a100,100,0,0,0,5.9,13.49c.62,1.14,1.3,2.3,2.07,3.47.38.58.79,1.18,1.23,1.77l.16.22.24.31.5.63c.33.42.69.82,1.06,1.21a17.46,17.46,0,0,0,10.77,6.13,15.49,15.49,0,0,0,11.69-3.56,23.22,23.22,0,0,0,2.4-2.23c.38-.4.77-.79,1.12-1.22l.53-.64.46-.58c.92-1.18,1.7-2.34,2.44-3.5A87.28,87.28,0,0,0,212,281.24a226.66,226.66,0,0,0,8.75-26.53c2.41-8.85,4.47-17.72,6.39-26.58,3.83-17.74,7.09-35.49,10.53-53.17s7.16-35.26,11.75-52.57c2.28-8.65,4.7-17.25,7.29-25.72S262,79.8,265.18,72a68.22,68.22,0,0,1,3.71-7.92,23.7,23.7,0,0,1,2-3,8.57,8.57,0,0,1,.75-.82l.22-.16s.36-.17.56-.24.43-.17.61-.21a3.94,3.94,0,0,1,.91-.17,1.78,1.78,0,0,1,1.05.2c.86.36,2.62,2.16,4,4.69a53.25,53.25,0,0,1,3.77,8.71c1.1,3.18,2.06,6.52,2.94,9.93,1.76,6.83,3.21,13.92,4.68,21.09s2.89,14.45,5,22l.09.3a10.31,10.31,0,0,0,3.55,5.42,4.92,4.92,0,0,0,4.92.88,6.43,6.43,0,0,0,3.31-3.76A10,10,0,0,0,307.46,123.07Zm-90.79-12.91,2.91,13.15,1.72,7.57,2.63-12.49c1.82-7.71,3.58-15.44,5.55-23.15l-3.33-15-1.86-8.3c-1.14-5-2.71-11.61-4.43-18.25s-3.62-13.27-5.21-18.26-2.84-8.33-2.84-8.33a98.31,98.31,0,0,0-6-13.5c-.64-1.15-1.32-2.3-2.11-3.48-.38-.59-.8-1.16-1.27-1.79a29.35,29.35,0,0,0-2.09-2.44A17.16,17.16,0,0,0,189.45.06a14.78,14.78,0,0,0-6.13.77A18.17,18.17,0,0,0,177.84,4l-1.22,1.1-1.14,1.19c-.39.39-.73.82-1.09,1.24l-.52.64-.33.44c-.91,1.18-1.67,2.34-2.39,3.49a88.43,88.43,0,0,0-6.59,13.48,228.54,228.54,0,0,0-8.72,26.54c-2.4,8.85-4.47,17.72-6.39,26.59-3.83,17.74-7.09,35.5-10.54,53.18s-7.17,35.27-11.78,52.58c-2.29,8.65-4.72,17.25-7.32,25.71s-5.36,16.85-8.55,24.61a65.46,65.46,0,0,1-3.61,7.57,21.28,21.28,0,0,1-1.89,2.83,8.22,8.22,0,0,1-.7.76l-.21.15s-.36.17-.56.24-.43.17-.6.2a3.47,3.47,0,0,1-.86.16,1.52,1.52,0,0,1-.91-.19,7.22,7.22,0,0,1-1.77-1.63A20.8,20.8,0,0,1,98,241.61a55.34,55.34,0,0,1-3.59-8.94c-1-3.24-1.93-6.65-2.74-10.11-1.63-6.94-3-14.12-4.33-21.39s-2.68-14.63-4.7-22.26l-.08-.31a10.33,10.33,0,0,0-3.52-5.48,4.89,4.89,0,0,0-4.93-.9A6.5,6.5,0,0,0,70.8,176a10,10,0,0,0-.33,5.82s.36,1.55.82,4,1,5.67,1.56,9l2.09,13.33s1,6.72,2.27,13.51c.64,3.39,1.37,6.8,2,9.37s1.1,4.29,1.1,4.29a84.68,84.68,0,0,0,3,9,42,42,0,0,0,4.85,9.07,23.52,23.52,0,0,0,4.07,4.38,17.25,17.25,0,0,0,6.11,3.27,16.7,16.7,0,0,0,7.11.46,18.93,18.93,0,0,0,3.19-.74c.49-.17,1-.33,1.46-.52l1.47-.64a16,16,0,0,0,3.4-2.25,22.71,22.71,0,0,0,2.42-2.48,36.34,36.34,0,0,0,3.36-4.8,82.05,82.05,0,0,0,4.67-9.34c3.73-8.77,6.61-17.48,9.36-26.23s5.19-17.49,7.49-26.27,4.31-17.59,6.39-26.38l5.59-26.46c3.59-17.64,6.93-35.29,10.77-52.77,1.93-8.73,4-17.42,6.32-26a214.29,214.29,0,0,1,8.25-25s.6-1.5,1.57-3.66a64.44,64.44,0,0,1,3.84-7.4c.38-.6.76-1.17,1.14-1.7l.56-.75.2-.24a3.21,3.21,0,0,1,.74-.61,1.27,1.27,0,0,1,.89-.18,2,2,0,0,1,1.15.84l.22.32c.21.31.48.66.71,1,.48.73,1,1.55,1.42,2.39a89.48,89.48,0,0,1,4.94,11.32s1.13,3,2.62,7.66,3.33,11,5,17.42c3.37,12.85,6.23,26,6.23,26Zm159.22,36.32a25.17,25.17,0,0,0-4.08-8.93,27.82,27.82,0,0,0-6.86-6.71,33.57,33.57,0,0,0-8.13-3.94,39.3,39.3,0,0,0-8.3-1.68,50.9,50.9,0,0,0-7.9-.13,57.73,57.73,0,0,0-15.33,2.7A44,44,0,0,0,311,135.67a50.42,50.42,0,0,0-10.22,12.2c-5.23,8.93-8,18.42-9.85,27.75-1,4.74-1.56,9.22-2.27,13.67s-1.36,8.85-2.11,13.22A234,234,0,0,1,281,228.08c-.82,2.77-1.7,5.49-2.7,8.05a44.9,44.9,0,0,1-3.32,7,16.63,16.63,0,0,1-1.8,2.49,5.25,5.25,0,0,1-.41.42l-.19.19-.12.09a.79.79,0,0,1-.26.18,1,1,0,0,1-.93-.09l-.18-.14s-.09-.09-.21-.24-.23-.28-.36-.46a22.49,22.49,0,0,1-1.68-2.74,70.51,70.51,0,0,1-3.23-7.21c-2-5.16-3.8-10.65-5.49-16.2-3.37-11.12-6.4-22.52-9.42-33.94l-3.34-13-.63-2.54c-.34,1.68-.68,3.36-1,5-1.91,9.79-3.77,19.61-5.69,29.43,1,3.62,2,7.24,3.07,10.86,2.57,8.77,5.16,17.53,8.6,26.4a78.92,78.92,0,0,0,3.91,8.63,35.82,35.82,0,0,0,2.85,4.52c.28.39.61.79,1,1.19s.74.82,1.19,1.27a15.48,15.48,0,0,0,3,2.27,17.63,17.63,0,0,0,8.08,2.34,16.45,16.45,0,0,0,9.76-3.31,21.13,21.13,0,0,0,1.66-1.38,24.08,24.08,0,0,0,1.71-1.76,40.47,40.47,0,0,0,5.95-9.6,87,87,0,0,0,3.64-9.46c.83-2.57,1.31-4.27,1.31-4.27a249.89,249.89,0,0,0,6.07-27.14c.79-4.5,1.51-9,2.2-13.45s1.31-8.9,2.23-12.91c1.66-8.21,4.23-16.07,8.12-22.47a34,34,0,0,1,6.91-8,27.14,27.14,0,0,1,9-4.67,42.58,42.58,0,0,1,11-1.66,36.26,36.26,0,0,1,5.49.14,23.63,23.63,0,0,1,4.78,1,17.75,17.75,0,0,1,3.88,1.84,11.47,11.47,0,0,1,2.7,2.56,10.23,10.23,0,0,1,1.9,7,12.35,12.35,0,0,1-1,3.81,11.42,11.42,0,0,1-2.19,3.39,13.81,13.81,0,0,1-3.34,2.76,22,22,0,0,1-2,1.11c-.77.25-1.47.66-2.31.85l-1.21.37-1.28.27a23.7,23.7,0,0,1-2.65.42c-.88.14-1.94.18-2.8.23a20,20,0,0,1-2.37,0,9.6,9.6,0,0,1-4.1-1.15,26.09,26.09,0,0,1-4.61-3.21l-.35-.3c-2.19-1.87-5.15-2.79-7.42-1.68-2.79,1.35-3.43,5.48-.67,9.32a33.85,33.85,0,0,0,5.58,6.05,23.72,23.72,0,0,0,3.94,2.65,22.91,22.91,0,0,0,4.62,1.78,28.55,28.55,0,0,0,4.47.81,38,38,0,0,0,4,.23,34.8,34.8,0,0,0,4.14-.15c.7-.07,1.39-.12,2.09-.22l2.11-.39a37.7,37.7,0,0,0,4.21-1.12,34.9,34.9,0,0,0,4.11-1.77,28.64,28.64,0,0,0,7.47-5.39,28,28,0,0,0,8.12-16.85A28.43,28.43,0,0,0,375.89,146.49Z"/>
  </g>
</svg>
