<svg xmlns="http://www.w3.org/2000/svg" viewBox="0 0 1925.29 1138.5">
  <defs><style>.noise-1,.noise-10,.noise-2,.noise-3,.noise-4,.noise-7,.noise-8,.noise-9{fill:none;}.noise-2,.noise-4,.noise-7{stroke:#1de9b6;}.noise-2,.noise-3,.noise-4,.noise-7{stroke-miterlimit:10;}.noise-2,.noise-3,.noise-4{stroke-width:30px;}.noise-10,.noise-3,.noise-8,.noise-9{stroke:#fff;}.noise-4{opacity:0.2;}.noise-5,.noise-6{fill:#fff;}.noise-6{fill-rule:evenodd;}.noise-7,.noise-8{stroke-width:5px;}.noise-10,.noise-8,.noise-9{stroke-linecap:round;stroke-linejoin:round;}.noise-9{stroke-width:10px;}.noise-10{stroke-width:4px;}</style></defs>
  <g>
    <rect class="noise-1" x="5.29" width="1920" height="1079"/>
    <path class="noise-2" d="M1497.29,652.75A86.25,86.25,0,1,1,1411,566.5"/>
    <path class="noise-3" d="M1815.55,886.23a49.5,49.5,0,0,1,45.31-77.32"/>
    <path class="noise-4" d="M1411,566.5a86.25,86.25,0,0,1,86.25,86.25"/>
    <path class="noise-4" d="M874.55,961.5A86.28,86.28,0,0,1,794,1016.75"/>
    <path class="noise-5" d="M1363.22,512.51C1335,476.34,1273.79,457,1236,442.11c4.75-3.14,9.79-6.59,14-9.78,12.93-9.68,19.49-21.48,19.47-37.14a70.9,70.9,0,0,0-1.4-13.51c-4.18-21.21-20.94-28.66-34-30.54-9.8-1.54-17.3-2.29-34.41,1.47-36.07,7.93-50.87,34.19-50.87,34.19-22.1,37.53-8.34,76.72,6.67,100.07s44.2,55.87,80.06,98.4,41.44,85.86,15,104.24c-28.25,19.65-59.81-12.8-59.81-12.8s1.1,2,1.9,3c1.39,1.9,16.17,13.91,25.6,17.11a134,134,0,0,0,93.28-.5c46.91-17.51,61-45.62,69.75-72.52S1392,549.41,1363.22,512.51ZM1195,373.66c5.66-17.93,30.78-21.61,37.82-20.4,11,1.24,30.16,8,34.12,28.65a69.47,69.47,0,0,1,1.38,13.28c0,15.3-6.27,26.6-19,36.14-4.45,3.34-9.77,7-14.72,10.22l-.85-.34C1196.23,426.19,1187.47,397.42,1195,373.66Z"/>
    <path class="noise-6" d="M1152.79,482.73s-42.42,20.94-60,44.3-35.47,66.21-16,105.16,60.4,49.17,94,33.11,47.71-42.36,54.53-56a206.26,206.26,0,0,0,10.3-24.05l.24-1.09s-5.9,16.76-13.19,21.6c-8,5.29-21.36,7.3-31.38-.68-7.76-6.18-30.47-25.24-41.39-51.39s-13.93-40-12.62-50.15C1138.39,494.94,1145.21,486.13,1152.79,482.73Z"/>
    <polygon class="noise-5" points="1142.29 489.12 1155.58 480.33 1156.27 481.38 1142.98 490.17 1142.29 489.12 1142.29 489.12"/>
    <path class="noise-5" d="M1226.33,604.19c3.73-6.43,8.94-20.61,8.95-20.63h0l1.18.43s-5.2,14.2-9,20.82h0l-1.08-.63Z"/>
    <path class="noise-5" d="M1282.41,462s8-26.73,15.62-37h0l1,.74c-3.66,4.91-7.55,14.1-10.48,22h0c-2.94,7.92-4.94,14.58-4.95,14.59h0l-1.2-.36Z"/>
    <path class="noise-6" d="M1294.17,434.59c-1.57,2.41-2.66,3.15-3.45,4.42,0,0,8.5-24.65,28-37.78,21.25-14.34,44.92-10.77,53.26-6.74s21.09,14.93,25.88,31.62c4.29,15,.47,32.59-15.34,44.95s-40,10.06-50.31-.29c-9.27-9.27-11.21-18.11-12.36-31.91s-5.17-13.8-9.49-13.8C1304.85,425.06,1297.9,428.85,1294.17,434.59Z"/>
    <line class="noise-7" x1="1016.2" y1="561.82" x2="793.58" y2="713"/>
    <line class="noise-8" x1="965" y1="787" x2="450.29" y2="1136"/>
    <line class="noise-9" x1="100.29" y1="449.19" x2="5" y2="513.81"/>
    <line class="noise-7" x1="1880" y1="869" x2="1571.29" y2="1079"/>
    <line class="noise-10" x1="1662.29" y1="323.38" x2="1417.2" y2="489.82"/>
  </g>
</svg>